<?xml version="1.0" encoding="UTF-8"?>
<svg width="752pt" height="752pt" version="1.1" viewBox="0 0 752 752" xmlns="http://www.w3.org/2000/svg">
 <defs>
  <clipPath id="a">
   <path d="m143 141h469.79v469h-469.79z"/>
  </clipPath>
 </defs>
 <g clip-path="url(#a)">
  <path d="m260.82 141.58v39.031h234.19v-39.031zm234.19 39.031v39.031h39.031v-39.031zm39.031 39.031v39.031h39.031v-39.031zm39.031 39.031v234.19h39.031v-234.19zm0 234.19h-39.031v39.031h39.031zm-39.031 39.031h-39.031v39.031h39.031zm-39.031 39.031h-234.19v39.031h234.19zm-234.19 0v-39.031h-39.031v39.031zm-39.031-39.031v-39.031h-39.031v39.031zm-39.031-39.031v-234.19h-39.031v234.19zm0-234.19h39.031v-39.031h-39.031zm39.031-39.031h39.031v-39.031h-39.031zm78.062 39.031v39.031h-39.031v39.031h-39.031v78.066h39.031v39.031h39.031v39.031h39.031v-234.19zm78.062 78.062v39.035h39.031v-39.035zm39.031 39.035v39.031h39.031v-39.031zm39.031 0h39.031v-39.035h-39.031zm0 39.031v39.031h39.031v-39.031zm-39.031 0h-39.031v39.031h39.031z" fill="#007335" fill-rule="evenodd"/>
 </g>
</svg>
